<?xml version="1.0" encoding="UTF-8" ?>
<!DOCTYPE svg PUBLIC "-//W3C//DTD SVG 1.1//EN" "http://www.w3.org/Graphics/SVG/1.1/DTD/svg11.dtd">
<svg width="633pt" height="184pt" viewBox="0 0 633 184" version="1.1" xmlns="http://www.w3.org/2000/svg">
<g id="#010101ff">
<path fill="#010101" opacity="1.00" d=" M 56.82 8.90 C 68.01 4.57 80.08 3.22 92.01 3.47 C 103.80 3.20 115.69 4.59 126.79 8.70 C 126.67 8.98 126.42 9.54 126.29 9.82 C 123.44 11.04 120.83 12.84 117.84 13.70 C 114.77 13.70 111.97 12.10 108.97 11.61 C 97.98 10.70 86.95 10.81 75.95 11.49 C 72.57 11.78 69.50 13.73 66.10 13.67 C 62.72 12.75 59.81 10.68 56.82 8.90 Z" />
<path fill="#010101" opacity="1.00" d=" M 22.50 15.84 C 24.31 11.90 26.04 6.75 30.83 5.70 C 35.77 5.53 40.50 7.18 45.20 8.47 C 51.48 10.21 57.48 12.83 63.30 15.72 C 66.79 17.42 69.84 20.02 73.56 21.24 C 85.63 20.47 97.82 20.30 109.89 21.27 C 111.54 21.18 112.96 20.16 114.38 19.40 C 124.95 12.72 136.89 8.30 149.14 5.92 C 152.40 5.07 156.05 6.02 157.95 8.93 C 162.15 15.50 164.46 23.24 164.66 31.04 C 165.40 39.52 163.41 47.88 161.55 56.08 C 162.24 59.70 164.65 62.73 165.81 66.22 C 168.45 73.95 173.74 80.31 178.37 86.90 C 178.34 89.97 177.42 92.94 175.23 95.14 C 176.10 98.52 176.15 102.16 177.98 105.23 C 180.82 110.50 183.74 116.72 181.81 122.75 C 174.92 127.82 166.40 129.96 158.66 133.40 C 152.17 142.66 141.33 147.57 130.61 150.07 C 136.79 159.11 138.76 171.55 133.50 181.45 C 130.97 183.17 127.77 181.73 125.10 181.06 C 119.30 179.25 113.22 178.08 107.85 175.14 C 102.47 171.83 99.10 165.53 99.50 159.20 C 94.50 159.35 89.50 159.35 84.50 159.20 C 84.94 166.25 80.69 173.37 74.17 176.14 C 68.54 178.65 62.47 179.89 56.61 181.70 C 54.37 182.32 50.70 183.04 49.77 180.16 C 45.53 170.34 47.44 158.77 53.39 150.07 C 42.67 147.57 31.82 142.65 25.33 133.38 C 17.60 129.98 9.13 127.82 2.24 122.80 C 0.20 116.79 3.18 110.52 6.01 105.25 C 7.86 102.18 7.89 98.51 8.77 95.13 C 6.55 92.94 5.69 89.96 5.62 86.91 C 10.27 80.31 15.56 73.93 18.20 66.19 C 19.36 62.71 21.78 59.69 22.45 56.07 C 19.09 43.01 17.26 28.68 22.50 15.84 M 27.58 12.70 C 25.30 19.26 24.21 26.14 23.54 33.02 C 23.07 40.69 25.47 48.12 26.95 55.56 C 26.99 62.19 22.23 67.44 20.75 73.72 C 19.37 79.57 14.42 83.39 11.67 88.51 C 14.31 89.29 16.96 90.02 19.62 90.72 C 19.95 93.37 20.14 96.03 20.22 98.70 C 18.81 99.74 17.42 100.80 16.03 101.86 C 18.96 104.42 22.49 106.08 25.71 108.20 C 26.14 110.08 26.00 112.03 26.02 113.94 C 25.26 114.07 23.74 114.32 22.98 114.45 C 19.67 112.19 16.28 109.97 13.42 107.14 C 12.41 106.46 11.64 105.10 10.29 105.12 C 8.11 108.78 6.35 112.79 5.31 116.93 C 4.76 118.42 7.09 118.46 7.84 119.26 L 7.82 119.31 C 9.37 120.11 10.92 120.92 12.44 121.79 C 16.91 124.07 21.76 125.44 26.38 127.35 C 30.50 129.00 33.05 132.85 36.66 135.25 C 44.94 141.19 55.27 143.73 65.36 143.70 C 65.09 143.19 64.56 142.17 64.29 141.67 C 56.02 142.24 49.37 136.79 41.97 134.09 C 35.39 131.75 29.38 127.90 24.69 122.70 C 21.55 121.58 18.45 120.24 15.71 118.29 C 15.94 116.92 16.16 115.55 16.39 114.18 C 20.36 115.36 24.49 115.72 28.56 116.32 C 31.51 118.36 33.76 121.29 36.91 123.08 C 40.14 124.90 43.61 126.25 46.96 127.83 C 53.33 130.75 59.83 133.63 66.98 133.67 C 70.38 137.34 75.51 138.28 80.22 139.09 C 76.34 135.24 73.26 130.52 68.60 127.51 C 66.12 126.98 62.51 126.88 61.86 123.80 C 61.85 121.92 61.77 120.03 62.14 118.18 C 63.32 118.02 64.51 118.19 65.69 118.29 C 66.24 118.76 67.33 119.71 67.88 120.18 C 68.85 122.07 69.59 124.26 71.56 125.35 C 74.72 127.33 77.34 130.01 79.62 132.93 C 84.81 132.02 89.68 128.41 95.12 129.98 C 98.19 131.03 101.21 132.23 104.39 132.93 C 106.67 130.01 109.26 127.33 112.42 125.36 C 114.39 124.27 115.15 122.08 116.11 120.19 C 116.65 119.73 117.72 118.79 118.26 118.32 C 119.48 118.20 120.71 118.11 121.94 118.17 C 122.18 120.02 122.13 121.88 122.10 123.74 C 121.88 124.31 121.44 125.46 121.23 126.03 C 118.20 126.95 114.81 127.32 112.47 129.67 C 109.39 132.64 106.79 136.06 103.78 139.09 C 108.49 138.29 113.62 137.34 117.02 133.67 C 124.17 133.63 130.67 130.74 137.04 127.84 C 140.38 126.25 143.84 124.90 147.07 123.09 C 150.22 121.31 152.47 118.37 155.42 116.34 C 159.60 115.70 163.80 115.19 167.96 114.40 C 168.03 115.37 168.16 117.31 168.22 118.28 C 165.55 120.28 162.45 121.58 159.33 122.68 C 154.65 127.86 148.68 131.72 142.11 134.06 C 134.67 136.77 127.98 142.24 119.67 141.67 C 119.45 142.18 118.99 143.19 118.77 143.70 C 128.80 143.71 139.05 141.17 147.30 135.28 C 150.91 132.89 153.45 129.06 157.55 127.38 C 162.20 125.45 167.08 124.07 171.58 121.78 C 173.09 120.91 174.63 120.10 176.18 119.30 L 176.17 119.25 C 177.06 118.78 177.93 118.27 178.78 117.72 C 178.09 113.51 176.15 109.54 174.12 105.83 C 172.99 103.90 171.65 106.51 170.61 107.14 C 167.73 109.94 164.38 112.18 161.05 114.40 C 160.30 114.33 158.81 114.19 158.06 114.12 C 158.06 112.14 157.81 110.11 158.31 108.17 C 161.54 106.07 165.05 104.41 167.97 101.86 C 166.58 100.80 165.19 99.74 163.78 98.71 C 163.85 96.04 164.05 93.38 164.39 90.73 C 167.07 90.02 169.73 89.26 172.39 88.45 C 170.62 85.37 168.19 82.76 166.14 79.89 C 163.43 76.12 162.88 71.37 160.81 67.28 C 158.99 63.54 157.28 59.72 156.50 55.61 L 157.22 55.62 C 158.31 48.08 161.04 40.70 160.46 32.99 C 159.78 26.12 158.69 19.26 156.43 12.72 C 155.91 12.42 154.86 11.84 154.34 11.54 C 146.82 13.38 139.15 14.93 132.04 18.10 C 125.04 20.95 118.86 25.39 111.97 28.45 C 98.71 26.88 85.24 26.93 71.98 28.43 C 66.40 26.08 61.48 22.47 55.97 19.98 C 47.75 15.66 38.63 13.66 29.67 11.54 C 29.15 11.83 28.10 12.41 27.58 12.70 M 83.96 139.54 C 89.34 140.07 94.72 139.96 100.11 139.66 C 97.65 138.78 95.38 137.39 92.86 136.66 C 89.64 136.38 86.95 138.70 83.96 139.54 M 78.68 147.51 C 78.69 148.22 78.71 149.63 78.72 150.34 C 72.09 150.90 65.43 151.23 58.78 151.21 C 58.53 151.19 58.04 151.16 57.80 151.15 C 56.60 155.02 53.82 158.14 52.57 161.98 C 51.15 165.80 51.29 169.89 51.89 173.86 C 54.54 175.38 57.27 173.51 59.90 172.92 C 64.98 171.16 70.73 170.59 74.99 167.02 C 77.27 164.97 79.17 162.41 80.22 159.52 C 81.25 155.86 80.76 152.00 80.78 148.26 C 80.08 148.01 79.38 147.76 78.68 147.51 M 103.23 148.25 C 103.24 152.00 102.75 155.85 103.78 159.51 C 105.54 164.21 109.30 168.27 114.11 169.92 C 117.87 171.23 121.77 172.13 125.56 173.38 C 127.70 173.97 129.98 175.23 132.11 173.80 C 132.71 169.86 132.84 165.80 131.44 161.99 C 130.18 158.15 127.41 155.02 126.20 151.15 C 125.98 151.17 125.54 151.19 125.32 151.21 C 118.63 151.21 111.94 150.92 105.28 150.33 C 105.29 149.62 105.31 148.22 105.32 147.52 C 104.62 147.76 103.92 148.00 103.23 148.25 M 82.98 148.41 C 83.12 149.89 83.50 151.30 84.11 152.63 C 89.45 153.07 94.81 152.73 100.16 152.77 C 100.43 151.30 100.67 149.83 100.92 148.36 C 94.94 148.69 88.95 148.58 82.98 148.41 Z" />
<path fill="#010101" opacity="1.00" d=" M 591.17 33.14 C 596.20 24.89 597.95 15.14 598.71 5.64 C 599.29 16.93 601.62 28.93 609.37 37.62 C 611.77 40.54 615.27 42.12 618.88 43.00 C 611.62 44.26 606.76 50.49 603.86 56.81 C 600.35 64.14 599.14 72.28 598.74 80.33 C 597.76 69.30 595.63 57.57 588.24 48.89 C 585.85 45.89 582.40 44.07 578.77 43.04 C 584.11 41.63 588.42 37.85 591.17 33.14 Z" />
<path fill="#010101" opacity="1.00" d=" M 231.92 8.81 C 236.87 8.64 241.81 9.00 246.76 9.05 C 246.73 14.62 246.65 20.20 247.06 25.77 C 251.62 25.74 256.18 25.75 260.74 25.75 C 260.74 27.66 260.74 29.56 260.75 31.47 C 256.19 31.45 251.63 31.73 247.07 31.74 C 246.92 41.08 247.04 50.41 247.00 59.74 C 251.58 59.75 256.16 59.75 260.75 59.74 C 260.74 61.74 260.73 63.73 260.73 65.73 C 256.15 65.76 251.58 65.75 247.00 65.75 C 246.84 83.89 247.37 102.04 246.62 120.17 C 246.61 124.43 243.50 127.98 239.95 129.94 C 237.44 131.31 234.49 130.93 231.75 131.08 C 231.76 97.89 231.33 64.70 231.50 31.51 C 223.50 31.49 215.50 31.50 207.50 31.50 C 207.50 29.58 207.50 27.67 207.51 25.75 C 215.51 25.74 223.51 25.76 231.51 25.74 C 231.50 20.10 231.34 14.43 231.92 8.81 Z" />
<path fill="#010101" opacity="1.00" d=" M 365.17 8.85 C 369.53 9.45 373.25 11.96 377.06 13.99 C 383.01 17.46 389.39 21.66 391.37 28.69 C 386.12 28.80 380.87 28.73 375.63 28.75 C 374.18 23.17 371.44 17.80 366.89 14.13 C 365.04 12.96 365.31 10.73 365.17 8.85 Z" />
<path fill="#010101" opacity="1.00" d=" M 416.85 18.78 C 418.71 16.22 419.64 13.16 420.84 10.27 C 425.28 10.43 429.72 10.77 434.14 11.20 C 433.15 15.84 429.73 19.36 425.83 21.82 C 420.63 25.12 415.14 28.26 409.06 29.53 C 409.04 27.52 409.04 25.51 409.09 23.50 C 411.86 22.31 415.00 21.33 416.85 18.78 Z" />
<path fill="#010101" opacity="1.00" d=" M 448.75 15.00 C 472.65 14.98 496.55 15.04 520.46 14.97 C 520.48 16.82 520.48 18.66 520.52 20.51 C 517.45 20.50 514.39 20.49 511.33 20.44 C 511.17 30.33 511.25 40.23 511.29 50.12 C 513.36 49.97 515.42 49.81 517.49 49.64 C 517.49 51.55 517.50 53.45 517.51 55.36 C 515.55 55.70 513.60 56.03 511.65 56.36 C 511.60 60.86 510.12 65.61 506.38 68.39 C 503.60 70.61 499.91 70.65 496.53 70.88 C 496.55 66.77 496.41 62.67 496.11 58.58 C 481.02 61.06 465.85 63.11 450.72 65.33 C 449.30 68.16 447.77 71.18 444.96 72.87 C 442.22 74.54 438.90 74.47 435.80 74.60 C 435.78 73.64 435.74 71.71 435.72 70.75 C 411.14 70.76 386.56 70.73 361.98 70.76 C 359.78 70.62 358.15 72.30 356.30 73.20 C 353.83 74.76 350.80 74.44 348.02 74.55 C 347.99 58.71 347.98 42.87 348.02 27.02 C 353.18 26.98 358.34 27.00 363.50 27.00 C 363.49 27.75 363.49 29.24 363.48 29.98 C 387.56 30.02 411.64 29.98 435.71 30.00 C 435.74 29.25 435.80 27.75 435.83 27.00 C 440.88 27.00 445.93 26.98 450.98 27.03 C 451.00 37.76 451.05 48.50 450.95 59.24 C 454.36 58.76 457.77 58.31 461.18 57.88 C 461.65 45.42 461.73 32.93 460.92 20.48 C 456.86 20.51 452.81 20.50 448.75 20.49 C 448.74 18.66 448.75 16.83 448.75 15.00 M 476.26 20.49 C 476.25 23.33 476.25 26.16 476.24 28.99 C 482.75 29.00 489.25 29.01 495.76 28.99 C 495.75 26.16 495.74 23.33 495.74 20.49 C 489.25 20.50 482.75 20.50 476.26 20.49 M 476.25 35.25 C 476.25 37.25 476.24 39.25 476.25 41.25 C 482.81 41.26 489.37 41.25 495.93 41.26 C 496.01 39.25 496.13 37.24 496.24 35.23 C 489.57 35.27 482.91 35.25 476.25 35.25 M 363.50 36.00 C 363.49 39.67 363.49 43.33 363.50 47.00 C 372.17 47.00 380.83 47.00 389.50 47.00 C 389.50 43.33 389.50 39.67 389.50 36.00 C 380.83 36.00 372.17 36.00 363.50 36.00 M 405.00 36.00 C 405.00 39.67 405.00 43.33 405.00 47.00 C 415.26 47.00 425.51 47.01 435.77 46.99 C 435.78 43.41 435.73 39.83 435.50 36.26 C 425.33 36.08 415.17 35.91 405.00 36.00 M 477.01 47.51 C 476.64 50.31 475.99 53.06 475.08 55.73 C 482.04 54.83 488.96 53.67 495.91 52.69 C 496.02 50.96 496.13 49.23 496.27 47.50 C 489.84 47.50 483.42 47.49 477.01 47.51 M 363.49 53.29 C 363.53 56.94 363.48 60.60 363.25 64.25 C 372.00 64.25 380.75 64.25 389.50 64.25 C 389.49 60.60 389.50 56.95 389.54 53.30 C 380.85 53.21 372.17 53.23 363.49 53.29 M 405.52 53.22 C 404.84 57.05 403.54 60.76 401.44 64.05 C 412.87 64.48 424.31 64.15 435.75 64.25 C 435.75 60.58 435.75 56.92 435.75 53.25 C 425.67 53.23 415.59 53.29 405.52 53.22 Z" />
<path fill="#010101" opacity="1.00" d=" M 258.16 16.57 C 282.78 16.53 307.40 16.29 332.02 16.72 C 333.97 16.71 335.91 16.99 337.83 17.40 C 333.52 32.23 321.09 42.82 308.01 50.00 C 313.05 49.95 318.09 50.09 323.13 50.00 C 325.63 50.21 327.46 48.00 329.92 48.04 C 334.71 47.88 339.51 48.02 344.31 48.07 C 341.01 58.69 336.36 68.91 330.27 78.22 C 327.35 82.53 323.83 86.40 321.14 90.87 C 329.82 98.78 339.92 105.04 350.73 109.60 C 348.75 114.19 346.90 118.84 344.84 123.40 C 333.14 116.73 323.13 107.56 313.77 97.96 C 303.81 107.12 292.51 115.13 279.74 119.83 C 274.08 122.05 268.36 124.75 262.11 124.41 C 265.62 120.54 270.69 118.83 274.98 116.04 C 286.77 108.69 298.02 100.16 307.10 89.57 C 300.92 81.07 295.37 71.95 292.21 61.86 C 289.50 53.01 287.40 43.77 287.97 34.46 C 288.52 34.79 289.62 35.47 290.17 35.80 C 292.36 40.25 293.36 45.18 295.25 49.75 C 305.83 43.99 314.72 34.62 318.70 23.14 C 307.06 22.55 295.40 22.79 283.75 22.75 C 283.65 42.84 284.03 62.94 283.32 83.02 C 283.39 91.53 279.30 99.54 274.14 106.09 C 268.05 113.48 259.36 118.02 250.67 121.65 C 250.45 119.85 250.28 118.06 250.14 116.26 C 255.38 113.04 260.84 109.53 263.97 104.05 C 266.12 100.33 268.10 96.31 268.47 91.97 C 268.56 68.90 268.89 45.83 268.75 22.76 C 265.35 22.76 261.96 22.75 258.57 22.69 C 258.42 20.65 258.28 18.61 258.16 16.57 M 297.79 56.35 C 302.00 65.34 306.68 74.25 313.02 81.95 C 318.45 74.13 322.61 65.47 325.21 56.30 C 316.08 55.62 306.93 56.24 297.79 56.35 Z" />
<path fill="#010101" opacity="1.00" d=" M 29.90 19.16 C 39.41 22.85 43.08 33.03 48.35 40.87 C 48.38 43.15 48.41 45.43 48.43 47.72 C 47.09 47.27 45.76 46.82 44.44 46.36 C 40.44 48.49 36.35 50.52 31.89 51.52 C 26.94 44.92 25.69 36.05 27.64 28.13 C 28.23 25.10 29.13 22.15 29.90 19.16 Z" />
<path fill="#010101" opacity="1.00" d=" M 135.65 40.89 C 140.92 33.04 144.59 22.85 154.10 19.16 C 157.58 29.62 159.38 42.18 152.11 51.52 C 147.65 50.53 143.56 48.49 139.56 46.35 C 138.23 46.82 136.90 47.27 135.57 47.72 C 135.59 45.44 135.62 43.16 135.65 40.89 Z" />
<path fill="#010101" opacity="1.00" d=" M 521.50 23.00 C 534.72 23.00 547.93 22.99 561.15 23.01 C 560.96 34.11 551.94 42.03 545.52 50.14 C 550.72 54.11 556.69 56.90 562.75 59.28 C 562.75 62.77 562.75 66.26 562.71 69.75 C 554.30 66.49 546.51 61.84 539.48 56.20 C 534.37 60.59 529.19 64.93 523.55 68.64 C 521.03 70.55 517.66 69.50 514.76 69.68 C 521.54 63.79 528.07 57.64 533.63 50.55 C 528.89 45.00 524.28 39.21 521.19 32.55 C 523.32 32.64 525.60 32.15 527.67 32.86 C 531.17 36.61 534.21 40.79 538.22 44.05 C 540.89 39.10 543.16 33.94 545.44 28.80 C 537.47 28.32 529.48 28.55 521.50 28.50 C 521.49 26.66 521.50 24.83 521.50 23.00 Z" />
<path fill="#010101" opacity="1.00" d=" M 6.45 68.05 C 8.52 59.68 11.06 51.22 15.99 44.03 C 16.35 48.44 17.27 52.78 17.64 57.19 C 16.89 65.29 11.43 71.69 6.66 77.87 C 5.92 78.43 5.18 79.00 4.45 79.58 C 5.86 75.89 5.52 71.85 6.45 68.05 Z" />
<path fill="#010101" opacity="1.00" d=" M 167.98 43.87 C 172.85 51.18 175.51 59.65 177.56 68.12 C 178.49 71.89 178.10 75.92 179.59 79.57 C 178.85 79.00 178.09 78.44 177.34 77.88 C 172.59 71.70 167.14 65.33 166.36 57.24 C 166.73 52.77 167.68 48.36 167.98 43.87 Z" />
<path fill="#010101" opacity="1.00" d=" M 207.50 54.99 C 212.51 54.92 217.51 55.17 222.51 55.30 C 221.99 67.18 223.58 79.14 222.04 90.95 C 221.04 97.75 213.84 101.27 207.51 100.34 C 207.49 85.22 207.50 70.10 207.50 54.99 Z" />
<path fill="#010101" opacity="1.00" d=" M 609.57 88.62 C 613.84 81.84 615.00 73.74 615.93 65.94 C 616.18 74.86 617.94 84.22 623.67 91.34 C 625.59 93.86 628.46 95.30 631.26 96.61 C 626.53 97.92 623.03 101.67 620.84 105.92 C 617.51 112.18 615.89 119.36 616.25 126.44 C 615.65 126.50 615.06 126.49 614.49 126.38 L 615.89 125.79 C 614.64 117.32 613.19 108.30 607.50 101.53 C 605.55 99.03 602.69 97.55 599.86 96.29 C 604.11 95.36 607.41 92.27 609.57 88.62 Z" />
<path fill="#010101" opacity="1.00" d=" M 510.96 72.05 C 520.73 71.69 530.46 70.46 540.25 70.47 C 540.24 72.37 540.24 74.28 540.25 76.18 C 533.26 76.84 526.23 76.92 519.24 77.56 C 523.11 81.99 527.47 85.96 531.89 89.84 C 536.85 86.54 541.92 83.34 546.29 79.26 C 547.83 77.96 549.17 76.37 550.96 75.38 C 554.67 75.02 558.42 75.27 562.15 75.40 C 556.65 84.66 546.53 89.81 536.77 93.45 C 545.93 99.43 555.72 104.40 565.72 108.80 C 565.74 114.30 565.85 119.81 565.61 125.31 C 555.93 120.42 547.20 113.89 538.61 107.32 C 529.84 100.74 523.24 91.86 516.51 83.33 C 516.42 94.23 516.77 105.16 515.77 116.03 C 514.74 122.54 507.61 125.98 501.51 125.39 C 501.51 109.83 501.49 94.26 500.95 78.72 C 487.10 79.48 473.25 80.28 459.40 81.07 C 459.51 79.11 459.64 77.14 459.81 75.18 C 476.85 74.06 493.90 73.04 510.96 72.05 Z" />
<path fill="#010101" opacity="1.00" d=" M 63.20 80.97 C 63.28 78.66 64.52 76.11 67.04 75.73 C 71.39 74.99 76.47 76.11 79.16 79.87 C 83.80 85.58 83.27 93.69 81.26 100.34 C 76.83 99.92 71.89 99.69 68.35 96.64 C 64.29 92.58 62.88 86.55 63.20 80.97 M 67.36 85.93 C 69.60 90.02 73.71 93.10 78.31 94.04 C 78.64 92.37 79.06 90.72 79.24 89.02 C 78.42 84.73 74.40 82.19 70.81 80.33 C 68.22 81.17 66.16 83.00 67.36 85.93 Z" />
<path fill="#010101" opacity="1.00" d=" M 102.31 84.30 C 103.87 80.10 107.32 76.18 112.02 75.73 C 115.18 75.07 119.88 75.45 120.54 79.37 C 121.50 85.23 120.09 91.70 116.09 96.21 C 112.60 99.66 107.36 99.90 102.76 100.35 C 101.13 95.17 100.65 89.54 102.31 84.30 M 105.32 87.21 C 104.08 89.38 105.44 91.80 105.70 94.05 C 110.14 93.17 113.89 90.25 116.38 86.54 C 117.09 84.80 117.44 81.52 114.88 81.25 C 110.65 80.28 107.17 83.83 105.32 87.21 Z" />
<path fill="#010101" opacity="1.00" d=" M 348.01 77.54 C 382.41 77.46 416.82 77.51 451.22 77.51 C 451.23 79.51 451.25 81.50 451.26 83.49 C 416.84 83.50 382.42 83.50 348.00 83.50 C 348.00 81.51 348.00 79.52 348.01 77.54 Z" />
<path fill="#010101" opacity="1.00" d=" M 453.95 97.91 C 465.66 96.45 476.75 91.07 484.90 82.49 C 489.52 82.51 494.15 82.42 498.78 82.63 C 493.08 88.12 487.11 93.72 479.59 96.57 C 471.44 100.10 462.47 100.67 453.72 101.24 C 453.78 100.41 453.89 98.74 453.95 97.91 Z" />
<path fill="#010101" opacity="1.00" d=" M 350.76 90.76 C 355.75 90.74 360.73 90.75 365.72 90.75 C 365.73 91.44 365.76 92.81 365.77 93.50 C 387.44 93.53 409.11 93.45 430.78 93.54 C 430.95 92.93 431.29 91.69 431.46 91.07 C 436.64 90.88 441.83 90.63 447.02 90.79 C 446.47 100.52 446.73 110.28 446.27 120.01 C 446.04 127.31 438.28 132.29 431.42 130.75 C 431.23 128.33 431.05 125.90 430.90 123.48 C 408.90 123.55 386.90 123.44 364.90 123.53 C 363.29 125.65 361.72 127.94 359.41 129.36 C 356.80 130.91 353.66 130.79 350.75 131.13 C 350.75 117.67 350.74 104.22 350.76 90.76 M 365.74 99.75 C 365.68 105.59 365.95 111.41 366.24 117.24 C 387.82 117.32 409.40 117.63 430.98 117.52 C 431.01 111.59 431.00 105.67 431.00 99.75 C 409.24 99.75 387.49 99.75 365.74 99.75 Z" />
<path fill="#010101" opacity="1.00" d=" M 52.32 93.69 C 59.14 95.84 65.50 99.40 71.03 103.92 C 71.07 107.04 71.14 110.15 71.20 113.27 C 70.92 113.40 70.37 113.66 70.09 113.79 C 69.73 114.12 69.00 114.77 68.64 115.09 C 62.49 117.31 57.85 111.71 54.28 107.61 C 50.58 103.93 51.87 98.30 52.32 93.69 Z" />
<path fill="#010101" opacity="1.00" d=" M 115.74 101.67 C 120.66 98.32 125.99 95.44 131.71 93.73 C 132.07 97.35 132.75 101.14 131.65 104.70 C 130.08 107.77 127.27 109.96 125.23 112.71 C 122.32 114.69 118.96 116.37 115.37 115.12 C 115.01 114.78 114.28 114.12 113.92 113.79 C 113.63 113.65 113.06 113.39 112.77 113.25 C 113.16 109.35 111.60 104.02 115.74 101.67 Z" />
<path fill="#010101" opacity="1.00" d=" M 183.34 119.00 C 192.52 116.16 194.52 105.26 195.13 96.93 C 196.07 105.15 197.90 116.03 207.00 118.96 C 197.94 122.04 196.10 132.79 195.08 141.05 C 194.57 132.72 192.50 121.84 183.34 119.00 Z" />
<path fill="#010101" opacity="1.00" d=" M 574.69 119.94 C 583.59 116.78 585.55 106.16 586.11 97.88 C 587.07 106.16 588.92 117.19 598.17 120.00 C 588.95 122.81 587.04 133.82 586.15 142.09 C 585.55 133.74 583.51 123.31 574.69 119.94 Z" />
<path fill="#010101" opacity="1.00" d=" M 484.41 100.24 C 489.34 100.26 494.28 100.22 499.21 100.29 C 494.16 104.59 489.10 109.00 483.37 112.37 C 474.15 116.97 463.63 118.65 453.40 118.21 C 453.91 116.85 454.04 114.89 455.98 115.04 C 466.68 113.15 477.01 108.34 484.41 100.24 Z" />
<path fill="#010101" opacity="1.00" d=" M 85.44 119.89 C 87.64 119.78 89.83 119.61 92.00 119.26 C 94.17 119.61 96.36 119.78 98.56 119.90 C 98.54 123.02 96.69 125.45 94.39 127.33 C 92.79 127.32 91.20 127.32 89.61 127.33 C 87.31 125.44 85.45 123.01 85.44 119.89 Z" />
<path fill="#010101" opacity="1.00" d=" M 209.00 132.05 C 211.00 130.47 212.81 128.59 215.09 127.42 C 217.96 127.03 220.90 127.11 223.78 127.44 C 224.66 129.59 224.12 132.03 224.26 134.30 C 222.09 134.42 219.92 134.50 217.75 134.58 C 217.75 136.85 217.75 139.13 217.75 141.40 C 219.92 141.49 222.09 141.60 224.26 141.77 C 224.06 144.00 224.76 146.52 223.70 148.56 C 221.73 148.82 219.74 148.78 217.76 148.83 C 217.51 156.23 218.30 163.69 217.28 171.05 C 214.66 170.58 211.07 172.10 209.13 169.89 C 208.77 162.90 209.12 155.89 209.00 148.89 C 207.43 148.79 205.85 148.73 204.30 148.51 C 203.84 146.29 204.00 144.00 203.98 141.75 C 205.65 141.61 207.32 141.51 209.00 141.40 C 209.00 138.28 209.00 135.17 209.00 132.05 Z" />
<path fill="#010101" opacity="1.00" d=" M 385.16 130.96 C 386.67 129.58 388.22 128.23 389.77 126.89 C 391.03 128.40 393.94 129.30 393.77 131.54 C 392.54 132.86 391.11 133.96 389.74 135.12 C 388.19 133.75 386.66 132.38 385.16 130.96 Z" />
<path fill="#010101" opacity="1.00" d=" M 356.27 134.68 C 359.37 133.30 362.32 131.56 364.84 129.27 C 364.72 133.10 364.74 136.93 364.76 140.76 C 368.47 140.86 372.23 140.42 375.92 140.96 C 378.03 142.18 379.83 143.87 381.75 145.37 C 381.65 153.49 381.94 161.62 381.65 169.73 C 381.63 171.52 379.12 170.82 378.00 171.06 C 376.41 171.08 374.82 171.02 373.26 170.75 C 372.64 163.11 373.18 155.41 373.00 147.75 C 370.25 147.75 367.50 147.75 364.76 147.76 C 364.58 155.51 365.14 163.30 364.42 171.03 C 361.81 171.01 359.20 171.01 356.59 171.04 C 355.82 158.94 356.43 146.79 356.27 134.68 Z" />
<path fill="#010101" opacity="1.00" d=" M 385.63 135.83 C 388.38 135.76 391.13 135.76 393.88 135.83 C 393.98 147.46 394.25 159.11 393.77 170.72 C 391.10 171.16 388.39 171.01 385.70 170.99 C 385.32 159.28 385.45 147.54 385.63 135.83 Z" />
<path fill="#010101" opacity="1.00" d=" M 297.88 138.06 C 300.48 137.97 304.23 136.59 306.12 138.91 C 306.48 143.68 306.15 148.47 306.26 153.25 C 309.02 153.25 311.78 153.24 314.55 153.24 C 314.48 148.08 314.39 142.92 314.67 137.77 C 317.41 137.75 320.15 137.76 322.90 137.86 C 323.12 148.24 322.94 158.63 323.00 169.02 C 321.04 170.59 319.26 172.46 317.01 173.60 C 311.07 173.90 305.09 173.84 299.15 173.64 C 297.34 171.96 298.60 168.97 298.22 166.76 C 303.63 166.27 309.07 166.56 314.50 166.50 C 314.49 164.50 314.49 162.50 314.49 160.50 C 310.81 160.50 307.13 160.50 303.45 160.51 C 301.48 158.94 299.51 157.37 297.53 155.82 C 297.69 149.90 297.01 143.93 297.88 138.06 Z" />
<path fill="#010101" opacity="1.00" d=" M 397.75 145.05 C 399.81 143.48 401.64 141.46 404.03 140.39 C 408.53 140.00 413.06 140.35 417.58 140.25 C 419.57 141.86 421.56 143.49 423.53 145.15 C 423.35 153.76 423.77 162.38 423.29 170.99 C 420.57 171.00 417.84 171.14 415.15 170.77 C 414.20 163.10 415.00 155.26 414.77 147.53 C 412.01 147.51 409.26 147.50 406.51 147.50 C 406.39 155.32 406.75 163.16 406.29 170.98 C 403.48 171.00 400.67 170.99 397.87 170.90 C 397.61 162.29 397.81 153.67 397.75 145.05 Z" />
<path fill="#010101" opacity="1.00" d=" M 519.47 140.29 C 523.35 140.27 527.23 140.16 531.11 140.24 C 534.57 139.97 536.66 143.26 539.25 145.01 C 539.26 152.05 539.23 159.10 539.27 166.15 C 537.22 167.74 535.46 169.90 533.03 170.87 C 528.67 171.14 524.28 171.14 519.93 170.87 C 517.54 169.87 515.74 167.85 513.72 166.28 C 513.78 159.18 513.73 152.08 513.75 144.98 C 515.67 143.43 517.58 141.87 519.47 140.29 M 522.24 147.52 C 522.26 152.93 522.25 158.34 522.25 163.75 C 525.08 163.75 527.91 163.75 530.75 163.75 C 530.75 158.34 530.73 152.93 530.77 147.53 C 527.92 147.50 525.08 147.50 522.24 147.52 Z" />
<path fill="#010101" opacity="1.00" d=" M 227.99 140.67 C 230.78 140.52 233.56 140.48 236.35 140.45 C 236.67 148.20 236.45 155.96 236.48 163.71 C 239.31 163.74 242.15 163.75 244.99 163.76 C 245.01 156.04 245.00 148.32 245.00 140.60 C 247.80 140.50 250.61 140.50 253.42 140.60 C 253.60 149.12 253.45 157.65 253.51 166.18 C 251.61 167.76 249.71 169.34 247.84 170.95 C 243.19 171.03 238.54 170.99 233.89 171.01 C 231.91 169.44 229.93 167.85 227.97 166.25 C 228.03 157.72 227.99 149.20 227.99 140.67 Z" />
<path fill="#010101" opacity="1.00" d=" M 257.25 145.28 C 259.23 143.66 261.22 142.06 263.19 140.45 C 265.72 140.48 268.25 140.55 270.78 140.75 C 270.76 143.04 270.73 145.34 270.66 147.63 C 269.02 147.70 267.39 147.75 265.76 147.81 C 265.60 155.54 266.10 163.31 265.45 171.03 C 262.85 171.01 260.25 171.00 257.66 171.02 C 256.75 162.47 257.48 153.85 257.25 145.28 Z" />
<path fill="#010101" opacity="1.00" d=" M 277.47 145.25 C 279.42 143.68 281.36 142.10 283.29 140.49 C 285.84 140.49 288.39 140.54 290.94 140.69 C 290.99 142.92 291.01 145.15 291.05 147.38 C 289.37 147.57 287.68 147.74 286.00 147.89 C 285.94 155.55 286.13 163.21 285.88 170.86 C 283.16 170.98 280.44 171.01 277.72 171.03 C 277.22 162.44 277.65 153.84 277.47 145.25 Z" />
<path fill="#010101" opacity="1.00" d=" M 326.99 145.16 C 328.93 143.60 330.88 142.05 332.83 140.50 C 339.30 140.55 345.77 140.36 352.24 140.65 C 352.23 142.96 352.42 145.31 351.94 147.59 C 346.47 147.99 340.98 147.65 335.51 147.75 C 335.49 153.08 335.50 158.41 335.50 163.75 C 341.07 163.76 346.65 163.71 352.23 163.80 C 352.23 166.16 352.22 168.51 352.17 170.87 C 345.75 171.12 339.33 170.94 332.91 171.02 C 330.91 169.44 328.93 167.85 326.97 166.24 C 327.03 159.21 326.99 152.19 326.99 145.16 Z" />
<path fill="#010101" opacity="1.00" d=" M 427.56 140.56 C 434.07 140.43 440.59 140.53 447.10 140.49 C 449.01 142.00 450.91 143.53 452.78 145.09 C 452.56 153.73 453.11 162.39 452.47 171.02 C 446.04 170.98 439.61 171.00 433.18 171.00 C 431.17 169.40 429.18 167.78 427.21 166.13 C 427.26 162.47 427.26 158.81 427.22 155.14 C 429.67 153.45 431.73 150.35 435.01 150.49 C 438.09 150.41 441.17 150.51 444.25 150.51 C 444.25 149.76 444.25 148.25 444.24 147.50 C 438.65 147.47 433.06 147.62 427.47 147.36 C 427.48 145.09 427.51 142.83 427.56 140.56 M 435.75 157.26 C 435.75 159.58 435.75 161.91 435.76 164.24 C 438.58 164.25 441.41 164.25 444.24 164.24 C 444.24 161.91 444.24 159.58 444.25 157.25 C 441.41 157.25 438.58 157.25 435.75 157.26 Z" />
<path fill="#010101" opacity="1.00" d=" M 484.25 145.35 C 486.25 143.74 488.23 142.11 490.22 140.49 C 496.18 140.58 502.15 140.35 508.11 140.56 C 510.15 140.31 509.73 142.71 509.82 143.99 C 509.67 145.21 510.20 146.90 508.87 147.63 C 503.59 147.99 498.29 147.64 493.00 147.75 C 493.00 153.09 492.99 158.42 493.01 163.76 C 498.61 163.77 504.21 163.66 509.82 163.86 C 509.76 166.25 509.66 168.65 509.45 171.03 C 503.05 170.79 496.61 171.38 490.25 170.75 C 488.06 169.45 485.98 167.84 484.38 165.85 C 484.01 159.03 484.36 152.18 484.25 145.35 Z" />
<path fill="#010101" opacity="1.00" d=" M 543.02 145.23 C 544.97 143.64 546.93 142.06 548.90 140.50 C 553.11 140.71 557.97 139.38 561.32 142.70 C 562.27 141.97 563.22 141.23 564.18 140.50 C 567.20 140.50 570.22 140.50 573.25 140.49 C 575.23 142.09 577.21 143.70 579.21 145.28 C 579.18 153.51 579.44 161.75 579.12 169.97 C 577.10 172.02 573.63 170.81 571.05 170.76 C 570.33 169.29 570.51 167.60 570.46 166.02 C 570.51 159.93 570.50 153.84 570.49 147.75 C 568.82 147.75 567.16 147.75 565.51 147.76 C 565.39 155.50 565.74 163.26 565.29 170.99 C 562.56 171.00 559.84 170.98 557.12 170.86 C 556.87 163.16 557.06 155.46 557.00 147.75 C 555.16 147.75 553.33 147.75 551.51 147.76 C 551.38 155.50 551.75 163.26 551.28 170.99 C 548.66 170.57 545.10 172.08 543.13 169.96 C 542.79 161.73 543.09 153.47 543.02 145.23 Z" />
<path fill="#010101" opacity="1.00" d=" M 27.22 142.00 C 34.11 145.85 41.17 149.51 48.71 151.95 C 47.85 153.82 47.01 155.70 46.17 157.58 C 39.40 152.95 32.80 148.04 27.22 142.00 Z" />
<path fill="#010101" opacity="1.00" d=" M 135.29 151.95 C 142.84 149.51 149.89 145.84 156.79 141.99 C 151.21 148.03 144.60 152.95 137.83 157.58 C 136.99 155.70 136.14 153.82 135.29 151.95 Z" />
<path fill="#010101" opacity="1.00" d=" M 464.12 162.01 C 466.50 159.87 470.35 161.44 473.32 161.04 C 473.52 164.09 473.53 167.15 473.37 170.20 C 470.36 170.11 467.20 170.73 464.29 169.78 C 463.82 167.22 463.82 164.58 464.12 162.01 Z" />
<path fill="#010101" opacity="1.00" d=" M 88.08 162.64 C 90.69 162.61 93.31 162.61 95.92 162.64 C 96.49 165.18 97.15 167.69 97.75 170.22 C 93.92 170.21 90.08 170.21 86.25 170.22 C 86.85 167.69 87.51 165.18 88.08 162.64 Z" />
</g>
<g id="#00000057">
<path fill="#000000" opacity="0.34" d=" M 71.98 28.43 C 85.24 26.93 98.71 26.88 111.97 28.45 C 112.74 33.55 115.36 38.28 119.04 41.86 C 123.18 44.94 128.07 46.82 132.46 49.52 C 139.69 53.81 148.13 55.75 156.50 55.61 C 157.28 59.72 158.99 63.54 160.81 67.28 C 162.88 71.37 163.43 76.12 166.14 79.89 C 168.19 82.76 170.62 85.37 172.39 88.45 C 169.73 89.26 167.07 90.02 164.39 90.73 C 164.05 93.38 163.85 96.04 163.78 98.71 C 165.19 99.74 166.58 100.80 167.97 101.86 C 165.05 104.41 161.54 106.07 158.31 108.17 C 157.81 110.11 158.06 112.14 158.06 114.12 C 158.81 114.19 160.30 114.33 161.05 114.40 C 164.38 112.18 167.73 109.94 170.61 107.14 C 172.97 110.93 174.89 114.97 176.17 119.25 L 176.18 119.30 C 174.63 120.10 173.09 120.91 171.58 121.78 C 170.98 120.23 170.38 118.69 169.78 117.14 C 169.39 117.43 168.61 117.99 168.22 118.28 C 168.16 117.31 168.03 115.37 167.96 114.40 C 163.80 115.19 159.60 115.70 155.42 116.34 C 152.47 118.37 150.22 121.31 147.07 123.09 C 143.84 124.90 140.38 126.25 137.04 127.84 C 132.56 125.21 127.84 123.00 123.22 120.62 C 122.85 121.66 122.48 122.70 122.10 123.74 C 122.13 121.88 122.18 120.02 121.94 118.17 C 120.71 118.11 119.48 118.20 118.26 118.32 C 117.30 117.25 116.36 116.16 115.37 115.12 C 118.96 116.37 122.32 114.69 125.23 112.71 C 127.27 109.96 130.08 107.77 131.65 104.70 C 132.75 101.14 132.07 97.35 131.71 93.73 C 125.99 95.44 120.66 98.32 115.74 101.67 C 111.60 104.02 113.16 109.35 112.77 113.25 C 107.00 111.25 101.69 108.13 95.96 106.05 C 93.44 105.08 90.63 105.04 88.12 106.03 C 82.35 108.12 77.01 111.24 71.20 113.27 C 71.14 110.15 71.07 107.04 71.03 103.92 C 65.50 99.40 59.14 95.84 52.32 93.69 C 51.87 98.30 50.58 103.93 54.28 107.61 C 57.85 111.71 62.49 117.31 68.64 115.09 C 67.63 116.14 66.67 117.22 65.69 118.29 C 64.51 118.19 63.32 118.02 62.14 118.18 C 61.77 120.03 61.85 121.92 61.86 123.80 C 61.47 122.74 61.10 121.67 60.73 120.61 C 56.15 123.04 51.44 125.21 46.96 127.83 C 43.61 126.25 40.14 124.90 36.91 123.08 C 33.76 121.29 31.51 118.36 28.56 116.32 C 24.49 115.72 20.36 115.36 16.39 114.18 C 16.16 115.55 15.94 116.92 15.71 118.29 C 15.30 118.00 14.47 117.43 14.05 117.14 C 13.51 118.69 12.98 120.23 12.44 121.79 C 10.92 120.92 9.37 120.11 7.82 119.31 L 7.84 119.26 C 9.10 114.96 11.03 110.92 13.42 107.14 C 16.28 109.97 19.67 112.19 22.98 114.45 C 23.74 114.32 25.26 114.07 26.02 113.94 C 26.00 112.03 26.14 110.08 25.71 108.20 C 22.49 106.08 18.96 104.42 16.03 101.86 C 17.42 100.80 18.81 99.74 20.22 98.70 C 20.14 96.03 19.95 93.37 19.62 90.72 C 16.96 90.02 14.31 89.29 11.67 88.51 C 14.42 83.39 19.37 79.57 20.75 73.72 C 22.23 67.44 26.99 62.19 26.95 55.56 C 31.63 55.59 36.35 55.31 40.87 54.00 C 48.03 52.22 54.07 47.81 60.61 44.61 C 66.92 41.74 70.97 35.14 71.98 28.43 M 63.20 80.97 C 62.88 86.55 64.29 92.58 68.35 96.64 C 71.89 99.69 76.83 99.92 81.26 100.34 C 83.27 93.69 83.80 85.58 79.16 79.87 C 76.47 76.11 71.39 74.99 67.04 75.73 C 64.52 76.11 63.28 78.66 63.20 80.97 M 102.31 84.30 C 100.65 89.54 101.13 95.17 102.76 100.35 C 107.36 99.90 112.60 99.66 116.09 96.21 C 120.09 91.70 121.50 85.23 120.54 79.37 C 119.88 75.45 115.18 75.07 112.02 75.73 C 107.32 76.18 103.87 80.10 102.31 84.30 M 38.06 100.12 C 34.38 101.40 29.97 102.57 28.02 106.31 C 29.57 106.29 31.11 106.27 32.66 106.25 C 31.93 114.47 41.81 119.12 48.69 116.62 C 50.59 115.49 51.20 113.05 51.38 110.99 C 51.56 107.88 51.80 104.11 49.14 101.92 C 46.06 99.55 41.75 98.77 38.06 100.12 M 135.44 101.47 C 131.99 103.76 132.36 108.39 132.74 112.00 C 133.08 113.92 133.89 116.38 136.05 116.89 C 140.91 118.20 146.32 116.27 149.69 112.63 C 151.06 110.83 150.85 108.37 151.34 106.25 C 152.88 106.27 154.43 106.29 155.98 106.30 C 154.65 103.47 151.61 102.26 148.92 101.14 C 144.66 99.17 139.46 98.66 135.44 101.47 Z" />
<path fill="#000000" opacity="0.34" d=" M 39.27 105.43 C 42.11 104.68 44.79 106.53 46.83 108.30 C 47.45 111.34 43.63 111.05 41.78 110.29 C 40.03 109.35 37.22 108.56 37.19 106.17 C 37.71 105.99 38.75 105.62 39.27 105.43 Z" />
<path fill="#000000" opacity="0.34" d=" M 137.07 108.06 C 139.96 106.04 144.78 103.37 147.26 107.42 C 144.36 109.39 141.16 111.10 137.54 110.78 C 137.42 110.10 137.19 108.74 137.07 108.06 Z" />
<path fill="#000000" opacity="0.34" d=" M 58.78 151.21 C 65.43 151.23 72.09 150.90 78.72 150.34 C 78.40 154.53 75.72 158.01 72.99 161.00 C 67.19 167.03 59.59 170.86 51.89 173.86 C 51.29 169.89 51.15 165.80 52.57 161.98 C 52.55 162.61 52.52 163.87 52.50 164.49 C 59.78 161.39 66.53 157.08 72.45 151.82 C 67.89 151.68 63.33 151.51 58.78 151.21 Z" />
<path fill="#000000" opacity="0.34" d=" M 116.99 166.06 C 111.70 162.22 106.12 157.17 105.28 150.33 C 111.94 150.92 118.63 151.21 125.32 151.21 C 120.73 151.52 116.14 151.69 111.55 151.81 C 117.47 157.07 124.21 161.40 131.50 164.48 C 131.48 163.86 131.45 162.62 131.44 161.99 C 132.84 165.80 132.71 169.86 132.11 173.80 C 126.86 171.66 121.53 169.55 116.99 166.06 Z" />
</g>
</svg>
